<svg width="29" height="29" viewBox="0 0 29 29" fill="none" xmlns="http://www.w3.org/2000/svg">
<path d="M9.97209 14.0855L3.99084 8.10421C3.87543 7.99274 3.78338 7.85941 3.72005 7.71199C3.65672 7.56457 3.62339 7.40601 3.62199 7.24557C3.6206 7.08512 3.65117 6.92601 3.71193 6.77751C3.77268 6.62901 3.86241 6.4941 3.97586 6.38065C4.08931 6.26719 4.22423 6.17747 4.37273 6.11671C4.52123 6.05596 4.68034 6.02538 4.84078 6.02678C5.00122 6.02817 5.15978 6.06151 5.3072 6.12483C5.45462 6.18816 5.58796 6.28022 5.69942 6.39562L12.535 13.2312C12.7615 13.4578 12.8887 13.765 12.8887 14.0855C12.8887 14.4059 12.7615 14.7132 12.535 14.9397L5.69942 21.7753C5.58796 21.8907 5.45462 21.9827 5.3072 22.0461C5.15978 22.1094 5.00122 22.1427 4.84078 22.1441C4.68034 22.1455 4.52123 22.115 4.37273 22.0542C4.22423 21.9934 4.08931 21.9037 3.97586 21.7903C3.86241 21.6768 3.77268 21.5419 3.71193 21.3934C3.65117 21.2449 3.6206 21.0858 3.62199 20.9253C3.62339 20.7649 3.65672 20.6063 3.72005 20.4589C3.78338 20.3115 3.87543 20.1782 3.99084 20.0667L9.97209 14.0855ZM14.5118 19.3332H24.1785C24.4989 19.3332 24.8063 19.4606 25.0329 19.6872C25.2595 19.9138 25.3868 20.2211 25.3868 20.5416C25.3868 20.8621 25.2595 21.1694 25.0329 21.396C24.8063 21.6226 24.4989 21.7499 24.1785 21.7499H14.5118C14.1913 21.7499 13.884 21.6226 13.6574 21.396C13.4308 21.1694 13.3035 20.8621 13.3035 20.5416C13.3035 20.2211 13.4308 19.9138 13.6574 19.6872C13.884 19.4606 14.1913 19.3332 14.5118 19.3332Z" fill="#FF0202"/>
</svg>
