<svg width="29" height="21" viewBox="0 0 29 21" fill="none" xmlns="http://www.w3.org/2000/svg">
<path d="M19.0313 10.5C17.8645 10.5 16.743 9.97891 15.8594 9.03867C15.0041 8.12109 14.4774 6.89199 14.3868 5.58359C14.2905 4.19023 14.7153 2.90449 15.5819 1.96992C16.4485 1.04102 17.6719 0.53125 19.0313 0.53125C20.3793 0.53125 21.6028 1.04668 22.4694 1.97559C23.3473 2.91582 23.7721 4.1959 23.6702 5.57793C23.5739 6.88633 23.0528 8.11543 22.1975 9.03301C21.3196 9.97891 20.1981 10.5 19.0313 10.5ZM19.0313 2.34375C18.1817 2.34375 17.4284 2.64961 16.9129 3.20469C16.3805 3.77676 16.137 4.55273 16.1993 5.45332C16.2616 6.34824 16.6127 7.18652 17.1905 7.80391C17.7229 8.37598 18.3799 8.6875 19.0313 8.6875C19.6883 8.6875 20.3397 8.37031 20.8721 7.80391C21.4498 7.18652 21.801 6.35391 21.8633 5.45332C21.9256 4.58105 21.6707 3.78242 21.1383 3.21602C20.6229 2.64961 19.8696 2.34375 19.0313 2.34375Z" fill="#FF0202"/>
<path d="M26.4965 20.4688H11.5661C11.0733 20.4688 10.6202 20.2479 10.32 19.8627C10.0085 19.4606 9.89517 18.9168 10.0198 18.4014C10.4956 16.487 11.6794 14.901 13.4352 13.8079C14.9928 12.8393 16.9809 12.3069 19.0256 12.3069C21.11 12.3069 23.0471 12.8167 24.6161 13.7852C26.3776 14.867 27.5614 16.4643 28.0372 18.4014C28.1618 18.9168 28.0485 19.4606 27.737 19.8627C27.4424 20.2479 26.9893 20.4688 26.4965 20.4688ZM11.8323 18.6563H26.236C25.3014 15.3145 21.7954 14.125 19.0313 14.125C16.2786 14.125 12.7782 15.3145 11.8323 18.6563Z" fill="#FF0202"/>
<path d="M8.32622 10.7265C6.33247 10.7265 4.58227 8.87437 4.41802 6.59741C4.33305 5.43062 4.69556 4.35444 5.43188 3.56147C6.16255 2.77983 7.18774 2.34937 8.32056 2.34937C9.4477 2.34937 10.4729 2.7855 11.2036 3.5728C11.9456 4.37144 12.3081 5.44761 12.2231 6.60308C12.0702 8.87436 10.3143 10.7265 8.32622 10.7265ZM8.32622 4.1562C7.70317 4.1562 7.14809 4.38276 6.76294 4.79624C6.36645 5.22105 6.17954 5.79878 6.23052 6.46714C6.32681 7.79253 7.28403 8.91401 8.32622 8.91401C9.36841 8.91401 10.3313 7.79253 10.4219 6.46714C10.4672 5.81577 10.2747 5.22671 9.88384 4.8019C9.49868 4.38276 8.9436 4.1562 8.32622 4.1562Z" fill="#FF0202"/>
<path d="M8.7227 18.6562H2.36196C1.9145 18.6562 1.50102 18.4523 1.22348 18.1068C0.940278 17.7443 0.838325 17.2458 0.951606 16.7814C1.34243 15.2011 2.31664 13.8984 3.76098 13.0035C5.03539 12.2162 6.65532 11.78 8.32055 11.78C9.74789 11.78 10.9657 12.0179 12.0418 12.5107C12.495 12.7203 12.6989 13.2583 12.4893 13.7115C12.2797 14.1646 11.7416 14.3685 11.2885 14.1589C10.4559 13.7794 9.48735 13.5925 8.32622 13.5925C6.25883 13.5925 3.6477 14.4535 2.82075 16.8494H8.7227C9.22114 16.8494 9.62895 17.2572 9.62895 17.7556C9.62895 18.2541 9.22114 18.6562 8.7227 18.6562Z" fill="#FF0202"/>
</svg>
